<?xml version="1.0" encoding="UTF-8"?>
<!DOCTYPE svg PUBLIC "-//W3C//DTD SVG 1.1//EN" "http://www.w3.org/Graphics/SVG/1.1/DTD/svg11.dtd">
<svg xmlns="http://www.w3.org/2000/svg" version="1.1" width="813px" height="813px" style="shape-rendering:geometricPrecision; text-rendering:geometricPrecision; image-rendering:optimizeQuality; fill-rule:evenodd; clip-rule:evenodd" xmlns:xlink="http://www.w3.org/1999/xlink">
<g><path style="opacity:0.966" fill="#040305" d="M 588.5,16.5 C 601.792,13.378 609.625,18.378 612,31.5C 620.201,73.6251 619.034,115.458 608.5,157C 637.661,192.291 662.327,230.624 682.5,272C 672.179,286.321 659.846,298.654 645.5,309C 621.548,325.591 596.548,340.591 570.5,354C 604.448,368.04 638.781,381.207 673.5,393.5C 678.13,392.041 682.796,390.707 687.5,389.5C 691.432,377.536 695.266,365.536 699,353.5C 700.255,351.406 702.088,350.406 704.5,350.5C 734.712,358.738 764.545,368.071 794,378.5C 794.618,383.326 793.951,387.992 792,392.5C 777.359,440.754 762.526,488.921 747.5,537C 792.818,549.126 813.985,578.626 811,625.5C 806.368,661.756 788.534,689.256 757.5,708C 706.263,735.737 653.93,737.737 600.5,714C 583.663,707.088 568.663,697.421 555.5,685C 537.765,683.72 520.432,680.386 503.5,675C 495.333,671.087 487.667,666.42 480.5,661C 470.398,649.892 459.398,639.892 447.5,631C 421.577,617.181 394.577,614.848 366.5,624C 347.086,630.418 330.586,641.251 317,656.5C 313.469,669.705 306.303,680.538 295.5,689C 289.462,692.577 283.128,693.244 276.5,691C 248.891,678.195 221.557,664.862 194.5,651C 178.664,640.816 174.497,626.983 182,609.5C 189.791,598.012 200.625,591.179 214.5,589C 220.833,588.333 227.167,588.333 233.5,589C 241.778,591.148 249.778,593.981 257.5,597.5C 259.498,576.671 268.498,559.504 284.5,546C 300.71,531.634 319.543,524.467 341,524.5C 342.601,512.461 344.434,500.461 346.5,488.5C 346.167,487.833 345.833,487.167 345.5,486.5C 318.184,498.988 292.184,496.821 267.5,480C 260.419,473.751 255.086,466.251 251.5,457.5C 237.614,458.63 224.281,456.296 211.5,450.5C 209.971,450.529 208.804,451.196 208,452.5C 195.538,467.297 182.705,481.797 169.5,496C 142.9,515.297 116.234,515.297 89.5,496C 66.5728,475.951 43.7394,455.784 21,435.5C 3.09869,412.511 1.09869,388.178 15,362.5C 19.0909,356.653 23.4242,350.987 28,345.5C 68,299.5 108,253.5 148,207.5C 167.287,184.849 191.287,177.182 220,184.5C 230.019,168.461 241.019,153.128 253,138.5C 251.927,100.126 260.594,64.1256 279,30.5C 282.549,24.4195 287.882,21.7528 295,22.5C 323.559,25.7415 349.726,35.4081 373.5,51.5C 407.773,42.6889 442.107,42.3556 476.5,50.5C 512.717,35.1179 550.05,23.7846 588.5,16.5 Z M 290.5,357.5 C 295.444,360.645 300.444,363.812 305.5,367C 314.315,370.576 322.981,374.409 331.5,378.5C 324.171,392.99 312.504,401.324 296.5,403.5C 296.329,389.653 291.996,377.319 283.5,366.5C 286.084,363.651 288.417,360.651 290.5,357.5 Z M 727.5,387.5 C 738.749,387.562 742.916,392.896 740,403.5C 738.019,405.657 735.686,407.324 733,408.5C 728.92,403.914 724.42,399.914 719.5,396.5C 721.041,392.361 723.708,389.361 727.5,387.5 Z M 538.5,443.5 C 572.58,452.187 606.58,461.187 640.5,470.5C 644.546,478.382 650.213,484.882 657.5,490C 654.141,499.744 650.974,509.577 648,519.5C 646.723,523.097 646.39,526.764 647,530.5C 657.776,534.567 668.61,538.4 679.5,542C 644.356,552.568 608.69,554.901 572.5,549C 562.45,546.641 553.117,542.641 544.5,537C 542.951,535.786 541.785,534.286 541,532.5C 539.884,502.84 539.05,473.174 538.5,443.5 Z M 701.5,498.5 C 707.832,498.161 711.499,501.161 712.5,507.5C 711.07,514.307 706.904,518.307 700,519.5C 688.753,516.014 686.586,509.514 693.5,500C 696.365,499.817 699.031,499.317 701.5,498.5 Z"/></g>
<g><path style="opacity:1" fill="#663cb4" d="M 591.5,26.5 C 594.448,26.2229 597.281,26.5562 600,27.5C 610.122,66.9014 609.956,106.235 599.5,145.5C 582.716,125.881 564.716,107.381 545.5,90C 528.842,75.9947 510.508,64.4947 490.5,55.5C 523.344,42.5432 557.01,32.8766 591.5,26.5 Z"/></g>
<g><path style="opacity:1" fill="#653cb4" d="M 290.5,32.5 C 315.806,34.4354 339.139,42.2687 360.5,56C 323.271,72.535 291.104,96.035 264,126.5C 264.442,92.723 273.275,61.3896 290.5,32.5 Z"/></g>
<g><path style="opacity:1" fill="#9c6ef1" d="M 416.5,52.5 C 471.341,51.4275 517.341,70.9275 554.5,111C 507.722,94.4814 470.222,106.648 442,147.5C 427.982,171.329 425.315,196.329 434,222.5C 443.898,241.386 459.065,254.22 479.5,261C 506.774,269.725 532.774,266.725 557.5,252C 561.198,249.814 564.532,247.147 567.5,244C 572.5,243.333 577.5,243.333 582.5,244C 611.183,251.339 639.183,260.672 666.5,272C 612.017,325.251 547.351,360.251 472.5,377C 410.917,388.261 351.917,380.427 295.5,353.5C 294.479,352.998 294.312,352.332 295,351.5C 306.614,340.607 314.947,327.607 320,312.5C 321.454,304.214 321.787,295.881 321,287.5C 319.094,279.4 316.427,271.733 313,264.5C 329.26,263.847 344.76,260.014 359.5,253C 382.026,237.465 391.859,215.965 389,188.5C 386.59,161.154 374.09,139.987 351.5,125C 328.944,114.249 306.111,113.749 283,123.5C 282.833,123.167 282.667,122.833 282.5,122.5C 318.307,82.2627 362.974,58.9294 416.5,52.5 Z"/></g>
<g><path style="opacity:0.999" fill="#070608" d="M 470.5,74.5 C 478.741,73.002 485.907,75.002 492,80.5C 495.583,87.4038 495.25,94.0705 491,100.5C 482.755,106.374 474.255,111.874 465.5,117C 456.741,125.096 447.407,132.429 437.5,139C 429.209,142.771 424.042,140.271 422,131.5C 420.683,119.117 424.016,108.117 432,98.5C 442.47,86.5246 455.303,78.5246 470.5,74.5 Z"/></g>
<g><path style="opacity:0.998" fill="#f9f9f9" d="M 473.5,83.5 C 477.544,82.9579 481.211,83.7912 484.5,86C 486.988,88.627 487.155,91.4603 485,94.5C 466.94,102.882 451.44,114.715 438.5,130C 433.598,134.032 430.265,133.032 428.5,127C 435.244,103.753 450.244,89.2527 473.5,83.5 Z"/></g>
<g><path style="opacity:0.999" fill="#09080b" d="M 342.5,92.5 C 368.411,90.871 385.911,102.204 395,126.5C 396.245,132.706 395.412,138.539 392.5,144C 388.833,146 385.167,146 381.5,144C 374.484,136.319 366.818,129.319 358.5,123C 351.905,119.468 344.905,117.135 337.5,116C 328.984,112.448 326.818,106.615 331,98.5C 334.575,95.7976 338.408,93.7976 342.5,92.5 Z"/></g>
<g><path style="opacity:0.998" fill="#f7f7f7" d="M 344.5,99.5 C 364.696,99.0146 378.863,108.015 387,126.5C 387.499,130.152 387.665,133.818 387.5,137.5C 386.448,137.649 385.448,137.483 384.5,137C 378.377,129.054 371.377,122.054 363.5,116C 355.877,112.014 347.877,109.014 339.5,107C 338.833,106.333 338.167,105.667 337.5,105C 339.469,102.511 341.802,100.678 344.5,99.5 Z"/></g>
<g><path style="opacity:1" fill="#363b64" d="M 502.5,113.5 C 539.5,109.59 569.333,122.257 592,151.5C 607,171.833 622,192.167 637,212.5C 646.928,228.685 656.095,245.352 664.5,262.5C 664,262.833 663.5,263.167 663,263.5C 632.565,250.517 601.065,241.184 568.5,235.5C 564.316,236.154 560.982,238.321 558.5,242C 525.425,263.93 492.425,263.93 459.5,242C 436.842,222.871 430.676,199.371 441,171.5C 450.493,149.676 465.327,132.51 485.5,120C 491.02,117.11 496.686,114.943 502.5,113.5 Z"/></g>
<g><path style="opacity:1" fill="#363b64" d="M 312.5,125.5 C 342.879,124.764 363.712,138.431 375,166.5C 383.521,185.887 383.521,205.22 375,224.5C 366.691,239.924 353.857,249.424 336.5,253C 326.926,255.119 317.259,255.786 307.5,255C 305.754,254.529 304.087,253.862 302.5,253C 277.994,231.991 253.66,210.824 229.5,189.5C 239.151,173.68 250.151,158.847 262.5,145C 277.949,135.024 294.616,128.524 312.5,125.5 Z"/></g>
<g><path style="opacity:0.997" fill="#030303" d="M 503.5,169.5 C 514.963,168.815 522.796,173.815 527,184.5C 529.158,201.076 521.991,209.243 505.5,209C 494.099,204.377 489.266,195.877 491,183.5C 493.636,177.369 497.803,172.703 503.5,169.5 Z"/></g>
<g><path style="opacity:0.998" fill="#030304" d="M 318.5,175.5 C 329.331,173.84 336.498,178.173 340,188.5C 341.879,205.623 334.379,212.789 317.5,210C 305.816,203.494 303.316,194.327 310,182.5C 312.441,179.546 315.275,177.213 318.5,175.5 Z"/></g>
<g><path style="opacity:1" fill="#663cb4" d="M 188.5,200.5 C 197.991,199.956 206.991,201.79 215.5,206C 243.445,225.605 269.279,247.772 293,272.5C 306.961,292.139 306.961,311.805 293,331.5C 254.667,376.167 216.333,420.833 178,465.5C 171.054,473.452 163.221,480.286 154.5,486C 137.971,492.823 121.971,491.823 106.5,483C 81.1998,464.711 57.3665,444.544 35,422.5C 26.3257,409.8 22.9924,395.8 25,380.5C 26.6123,374.609 29.2789,369.275 33,364.5C 72.3333,318.5 111.667,272.5 151,226.5C 161.017,213.94 173.517,205.274 188.5,200.5 Z"/></g>
<g><path style="opacity:0.997" fill="#070608" d="M 194.5,211.5 C 210.52,210.362 218.687,217.695 219,233.5C 214.828,247.671 205.661,252.504 191.5,248C 180.325,240.799 177.825,231.299 184,219.5C 186.94,215.963 190.44,213.297 194.5,211.5 Z"/></g>
<g><path style="opacity:0.998" fill="#f9f9f9" d="M 195.5,218.5 C 209.418,218.226 214.251,224.559 210,237.5C 205.299,243.41 199.466,244.91 192.5,242C 183.824,232.903 184.824,225.07 195.5,218.5 Z"/></g>
<g><path style="opacity:0.998" fill="#050406" d="M 404.5,231.5 C 433.089,227.537 437.089,235.37 416.5,255C 413.789,256.805 411.122,256.805 408.5,255C 403.525,251.03 399.691,246.197 397,240.5C 396.405,234.928 398.905,231.928 404.5,231.5 Z"/></g>
<g><path style="opacity:0.996" fill="#0b080e" d="M 244.5,243.5 C 254.158,241.993 258.325,245.993 257,255.5C 250.831,262.435 245.164,262.101 240,254.5C 239.319,249.871 240.819,246.205 244.5,243.5 Z"/></g>
<g><path style="opacity:0.996" fill="#0b090d" d="M 222.5,245.5 C 235.516,244.403 239.183,249.57 233.5,261C 225.792,264.311 220.792,261.978 218.5,254C 219.187,250.827 220.521,247.994 222.5,245.5 Z"/></g>
<g><path style="opacity:0.998" fill="#040406" d="M 174.5,247.5 C 177.893,247.062 180.893,247.895 183.5,250C 209.167,272.333 234.833,294.667 260.5,317C 262.958,318.787 264.624,321.121 265.5,324C 264.076,327.092 262.243,329.926 260,332.5C 226.127,370.704 192.627,409.204 159.5,448C 156.12,448.938 153.12,448.271 150.5,446C 125.167,424 99.8333,402 74.5,380C 71.716,377.888 69.716,375.221 68.5,372C 69.5863,369.248 71.0863,366.748 73,364.5C 107.416,325.924 141.249,286.924 174.5,247.5 Z"/></g>
<g><path style="opacity:0.996" fill="#ededed" d="M 246.5,247.5 C 252.487,246.977 254.487,249.477 252.5,255C 248.262,257.527 245.262,256.527 243.5,252C 243.957,250.06 244.957,248.56 246.5,247.5 Z"/></g>
<g><path style="opacity:0.993" fill="#f2f2f2" d="M 226.5,248.5 C 230.803,248.963 232.636,251.296 232,255.5C 228.21,259.671 225.377,259.171 223.5,254C 223.613,251.601 224.613,249.768 226.5,248.5 Z"/></g>
<g><path style="opacity:0.999" fill="#373c65" d="M 177.5,259.5 C 179.932,260.75 182.266,262.25 184.5,264C 199.833,277.333 215.167,290.667 230.5,304C 238.201,310.703 245.535,317.703 252.5,325C 220.71,362.624 188.377,399.791 155.5,436.5C 130.17,415.348 105.503,393.515 81.5,371C 113.322,333.678 145.322,296.511 177.5,259.5 Z"/></g>
<g><path style="opacity:0.996" fill="#0b080e" d="M 249.5,263.5 C 258.015,263.844 261.515,268.177 260,276.5C 257.774,280.861 254.274,282.361 249.5,281C 244.076,278.983 242.242,275.15 244,269.5C 245.36,266.977 247.193,264.977 249.5,263.5 Z"/></g>
<g><path style="opacity:0.999" fill="#070406" d="M 365.5,264.5 C 370.267,265.088 373.434,267.755 375,272.5C 382.325,279.017 390.492,280.184 399.5,276C 403.046,272.118 406.879,268.618 411,265.5C 415.404,267.898 419.238,271.065 422.5,275C 437.818,284.334 450.485,281.667 460.5,267C 463.857,265.859 465.857,267.025 466.5,270.5C 465.557,275.053 463.557,279.053 460.5,282.5C 455.03,286.26 449.53,289.927 444,293.5C 439.038,305.612 431.538,315.779 421.5,324C 414.049,327.801 407.049,327.135 400.5,322C 388.883,312.596 380.883,300.762 376.5,286.5C 368.902,283.237 364.236,277.57 362.5,269.5C 363.092,267.577 364.092,265.911 365.5,264.5 Z"/></g>
<g><path style="opacity:0.996" fill="#0a070d" d="M 228.5,265.5 C 236.472,265.636 239.972,269.636 239,277.5C 236.103,282.155 231.937,283.655 226.5,282C 221.465,278.987 220.298,274.82 223,269.5C 224.5,267.531 226.333,266.198 228.5,265.5 Z"/></g>
<g><path style="opacity:0.997" fill="#f2f2f2" d="M 249.5,268.5 C 256.486,268.331 258.153,271.164 254.5,277C 250.26,278.539 247.593,277.206 246.5,273C 247.315,271.357 248.315,269.857 249.5,268.5 Z"/></g>
<g><path style="opacity:0.996" fill="#ebebeb" d="M 228.5,269.5 C 234.803,269.924 236.469,272.757 233.5,278C 229.301,280.401 226.634,279.234 225.5,274.5C 226.092,272.577 227.092,270.911 228.5,269.5 Z"/></g>
<g><path style="opacity:0.999" fill="#bb0d00" d="M 410.5,279.5 C 414.954,282.229 419.62,284.729 424.5,287C 427.432,288.145 430.432,288.978 433.5,289.5C 430.862,300.608 424.862,309.441 415.5,316C 413.5,316.667 411.5,316.667 409.5,316C 399.678,309.351 392.678,300.517 388.5,289.5C 393.289,288.818 397.955,287.652 402.5,286C 405.787,284.533 408.454,282.366 410.5,279.5 Z"/></g>
<g><path style="opacity:0.994" fill="#f7f8f9" d="M 151.5,306.5 C 157.925,306.13 164.258,306.63 170.5,308C 174.007,309.33 175.673,311.83 175.5,315.5C 162.198,310.191 149.865,311.857 138.5,320.5C 134.785,318.535 134.618,316.202 138,313.5C 142.232,310.469 146.732,308.135 151.5,306.5 Z"/></g>
<g><path style="opacity:0.994" fill="#f7f7f8" d="M 154.5,316.5 C 160.434,315.889 166.1,316.722 171.5,319C 174.06,322.973 172.727,324.473 167.5,323.5C 163.829,322.885 160.162,322.719 156.5,323C 152.162,324.503 147.828,326.003 143.5,327.5C 142.833,327.167 142.167,326.833 141.5,326.5C 144.196,320.991 148.529,317.657 154.5,316.5 Z"/></g>
<g><path style="opacity:0.998" fill="#fafafb" d="M 157.5,326.5 C 176.509,327.171 184.009,336.838 180,355.5C 177.108,361.392 172.608,365.559 166.5,368C 172.333,373.167 178.167,378.333 184,383.5C 187.838,389.99 186.005,392.823 178.5,392C 167.794,382.291 156.794,372.958 145.5,364C 141.631,360.466 138.131,356.633 135,352.5C 134.333,350.833 134.333,349.167 135,347.5C 136.667,346.5 138.333,345.5 140,344.5C 142.683,335.318 148.517,329.318 157.5,326.5 Z"/></g>
<g><path style="opacity:0.999" fill="#3a3e67" d="M 159.5,336.5 C 170.067,337.616 173.567,343.283 170,353.5C 160.295,361.583 153.795,359.583 150.5,347.5C 150.515,345.366 151.015,343.366 152,341.5C 154.426,339.548 156.926,337.881 159.5,336.5 Z"/></g>
<g><path style="opacity:1" fill="#9c6ef2" d="M 636.5,439.5 C 635.833,445.5 635.167,451.5 634.5,457.5C 602.81,449.494 571.143,441.327 539.5,433C 538.167,430 536.833,427 535.5,424C 532.783,422.967 530.949,423.8 530,426.5C 528.913,435.117 528.413,443.784 528.5,452.5C 529.2,488.17 530.033,523.837 531,559.5C 537.401,594.024 558.068,612.691 593,615.5C 595.758,630.797 599.592,645.797 604.5,660.5C 603.91,661.799 602.91,662.632 601.5,663C 570.852,674.266 540.185,674.266 509.5,663C 495.181,656.355 482.848,647.022 472.5,635C 438.974,608.109 401.641,601.443 360.5,615C 342.12,621.726 326.12,632.059 312.5,646C 311.833,646.667 311.167,646.667 310.5,646C 297.048,634.182 283.882,622.016 271,609.5C 267.21,601.108 266.543,592.442 269,583.5C 279.6,560.234 297.1,544.734 321.5,537C 328.619,535.194 335.785,535.028 343,536.5C 345.034,536.646 346.701,535.98 348,534.5C 353.986,504.256 359.652,473.922 365,443.5C 365.779,438.5 366.112,433.5 366,428.5C 362.527,424.283 359.527,424.616 357,429.5C 355.504,443.642 353.17,457.642 350,471.5C 324.922,488.551 299.755,488.717 274.5,472C 268.775,466.781 264.442,460.614 261.5,453.5C 278.129,445.038 289.129,431.871 294.5,414C 316.364,412.137 332.364,401.471 342.5,382C 361.541,386.388 380.875,389.388 400.5,391C 431.579,392.225 462.245,389.225 492.5,382C 513.544,376.263 534.21,369.43 554.5,361.5C 588.764,373.31 622.764,385.81 656.5,399C 656.957,399.414 657.291,399.914 657.5,400.5C 644.465,410.237 637.465,423.237 636.5,439.5 Z"/></g>
<g><path style="opacity:0.999" fill="#bb0d00" d="M 706.5,362.5 C 732.388,369.389 758.054,377.056 783.5,385.5C 766.555,438.999 750.222,492.666 734.5,546.5C 708.532,539.566 682.866,531.732 657.5,523C 660.543,513.37 663.876,503.87 667.5,494.5C 672.88,496.506 678.213,498.506 683.5,500.5C 679.559,514.979 684.893,523.312 699.5,525.5C 714.401,524.013 720.234,516.013 717,501.5C 715.961,499.254 714.794,497.087 713.5,495C 736.626,482.927 747.459,463.76 746,437.5C 744.495,429.984 741.995,422.818 738.5,416C 743.15,412.355 746.65,407.855 749,402.5C 750.408,388.965 744.408,381.298 731,379.5C 727.077,379.474 723.577,380.641 720.5,383C 717.357,386.82 714.357,390.654 711.5,394.5C 707.264,393.024 702.93,392.024 698.5,391.5C 701.167,381.833 703.833,372.167 706.5,362.5 Z M 701.5,498.5 C 699.031,499.317 696.365,499.817 693.5,500C 686.586,509.514 688.753,516.014 700,519.5C 706.904,518.307 711.07,514.307 712.5,507.5C 711.499,501.161 707.832,498.161 701.5,498.5 Z"/></g>
<g><path style="opacity:0.999" fill="#363b64" d="M 274.5,374.5 C 280.049,379.588 283.549,385.922 285,393.5C 287.782,419.775 276.615,436.942 251.5,445C 240.442,447.727 229.775,446.727 219.5,442C 219.043,441.586 218.709,441.086 218.5,440.5C 219.531,439.3 220.365,437.966 221,436.5C 239.078,415.989 256.911,395.322 274.5,374.5 Z"/></g>
<g><path style="opacity:0.998" fill="#070608" d="M 50.5,380.5 C 62.251,379.12 70.4177,383.787 75,394.5C 75.5098,411.987 67.0098,419.821 49.5,418C 36.0133,410.848 33.18,400.681 41,387.5C 43.7901,384.535 46.9567,382.202 50.5,380.5 Z"/></g>
<g><path style="opacity:0.994" fill="#0c0a0e" d="M 220.5,383.5 C 228.472,383.636 231.972,387.636 231,395.5C 225.667,403.5 220.333,403.5 215,395.5C 213.873,390.089 215.707,386.089 220.5,383.5 Z"/></g>
<g><path style="opacity:0.999" fill="#f8f8f8" d="M 52.5,387.5 C 63.6203,387.12 68.787,392.453 68,403.5C 63.4365,412.68 56.6032,414.847 47.5,410C 39.9913,400.375 41.658,392.875 52.5,387.5 Z"/></g>
<g><path style="opacity:0.999" fill="#f5f5f5" d="M 221.5,387.5 C 226.989,387.504 228.822,390.171 227,395.5C 220.479,398.995 217.813,396.995 219,389.5C 219.995,388.934 220.828,388.267 221.5,387.5 Z"/></g>
<g><path style="opacity:0.999" fill="#070509" d="M 406.5,400.5 C 425.27,400.009 443.936,401.176 462.5,404C 468.74,405.908 472.573,410.075 474,416.5C 475.294,432.615 473.294,448.282 468,463.5C 464.846,467.661 460.679,470.161 455.5,471C 440.167,471.667 424.833,471.667 409.5,471C 403.392,470.645 397.392,469.645 391.5,468C 384.703,465.598 380.87,460.765 380,453.5C 379.333,443.167 379.333,432.833 380,422.5C 381.097,415.126 384.597,409.293 390.5,405C 395.783,402.85 401.116,401.35 406.5,400.5 Z"/></g>
<g><path style="opacity:1" fill="#363b64" d="M 687.5,400.5 C 711.374,400.014 727.208,411.014 735,433.5C 739.122,458.093 729.956,475.593 707.5,486C 681.795,494.219 662.295,486.719 649,463.5C 640.634,436.402 649.134,416.569 674.5,404C 678.86,402.417 683.194,401.25 687.5,400.5 Z"/></g>
<g><path style="opacity:1" fill="#663cb2" d="M 402.5,408.5 C 414.838,408.333 427.171,408.5 439.5,409C 447.61,409.463 455.61,410.463 463.5,412C 464.333,412.833 465.167,413.667 466,414.5C 467.047,426.942 466.381,439.275 464,451.5C 463.058,454.993 461.725,458.326 460,461.5C 436.719,465.96 413.553,465.294 390.5,459.5C 384.68,443.933 385.18,428.6 392,413.5C 395.147,410.841 398.647,409.174 402.5,408.5 Z"/></g>
<g><path style="opacity:0.998" fill="#08080a" d="M 80.5,410.5 C 82.6547,410.372 84.6547,410.872 86.5,412C 90.7061,418.158 94.3727,417.825 97.5,411C 98.5,410.333 99.5,410.333 100.5,411C 105.621,414.453 110.454,418.286 115,422.5C 115.667,424.167 115.667,425.833 115,427.5C 113.692,429.641 112.192,431.641 110.5,433.5C 111.757,435.679 113.257,437.679 115,439.5C 115.667,441.167 115.667,442.833 115,444.5C 112.203,448.299 109.036,451.799 105.5,455C 102.147,455.747 98.9803,455.247 96,453.5C 93.6667,455.167 91.3333,456.833 89,458.5C 81.8331,456.088 76.1665,451.755 72,445.5C 71.9401,442.604 72.7734,439.937 74.5,437.5C 72.8967,434.72 71.0634,432.054 69,429.5C 68.585,424.979 69.9184,420.979 73,417.5C 75.8598,415.498 78.3598,413.165 80.5,410.5 Z"/></g>
<g><path style="opacity:0.994" fill="#bc0e03" d="M 434.5,413.5 C 441.289,412.818 447.122,414.818 452,419.5C 455.498,425.349 454.998,430.849 450.5,436C 445.593,438.691 440.426,440.857 435,442.5C 430.107,440.263 429.274,436.93 432.5,432.5C 435.447,431.679 438.447,431.179 441.5,431C 446.325,428.865 446.659,426.199 442.5,423C 439.118,422.824 435.785,422.324 432.5,421.5C 430.778,418.082 431.444,415.416 434.5,413.5 Z"/></g>
<g><path style="opacity:0.994" fill="#bc0f04" d="M 404.5,415.5 C 409.07,415.238 411.07,417.404 410.5,422C 410.042,427 408.875,431.833 407,436.5C 405.959,438.585 404.459,440.252 402.5,441.5C 401.808,440.975 401.308,440.308 401,439.5C 400.333,434.833 400.333,430.167 401,425.5C 401.264,421.736 402.431,418.403 404.5,415.5 Z"/></g>
<g><path style="opacity:0.998" fill="#f9f9f9" d="M 81.5,417.5 C 85.3077,419.573 88.9744,421.906 92.5,424.5C 94.8668,422.296 97.3668,420.296 100,418.5C 102.616,420.112 104.95,422.112 107,424.5C 106.089,427.805 104.589,430.971 102.5,434C 104.154,436.987 106.487,439.321 109.5,441C 107.167,444 104.833,447 102.5,450C 101.833,450.667 101.167,450.667 100.5,450C 98.9458,448.108 97.1124,446.608 95,445.5C 92.6667,447.167 90.3333,448.833 88,450.5C 84.4391,448.945 81.4391,446.612 79,443.5C 80.3731,440.741 81.8731,437.908 83.5,435C 83.3333,434.167 83.1667,433.333 83,432.5C 80.5536,430.041 78.0536,427.708 75.5,425.5C 77.1397,422.532 79.1397,419.865 81.5,417.5 Z"/></g>
<g><path style="opacity:0.873" fill="#30234a" d="M 636.5,439.5 C 636.83,445.868 636.496,452.202 635.5,458.5C 634.893,458.376 634.56,458.043 634.5,457.5C 635.167,451.5 635.833,445.5 636.5,439.5 Z"/></g>
<g><path style="opacity:0.99" fill="#ba1009" d="M 400.5,447.5 C 407.225,447.204 408.891,449.871 405.5,455.5C 401.61,456.817 399.276,455.317 398.5,451C 398.978,449.697 399.645,448.531 400.5,447.5 Z"/></g>
<g><path style="opacity:0.991" fill="#bb0f07" d="M 433.5,448.5 C 439.643,449.026 440.976,451.86 437.5,457C 432,458.167 429.833,456 431,450.5C 431.995,449.934 432.828,449.267 433.5,448.5 Z"/></g>
<g><path style="opacity:1" fill="#996ced" d="M 540.5,547.5 C 547.616,551.059 554.95,554.059 562.5,556.5C 562.45,567.918 560.283,578.918 556,589.5C 544.629,577.897 539.462,563.897 540.5,547.5 Z"/></g>
<g><path style="opacity:1" fill="#663cb5" d="M 701.5,548.5 C 713.062,551.186 724.562,554.186 736,557.5C 737.167,557.333 738.333,557.167 739.5,557C 741.484,554.866 742.818,552.366 743.5,549.5C 751.279,548.442 758.613,549.942 765.5,554C 801.002,577.724 810.502,609.557 794,649.5C 789.204,664.274 781.037,676.774 769.5,687C 752.094,700.619 732.594,710.119 711,715.5C 710.167,715.333 709.333,715.167 708.5,715C 721.409,696.611 728.576,676.111 730,653.5C 730.776,615.83 720.276,581.664 698.5,551C 699.571,550.148 700.571,549.315 701.5,548.5 Z"/></g>
<g><path style="opacity:1" fill="#9b6ef0" d="M 683.5,551.5 C 684.873,551.343 686.207,551.51 687.5,552C 712.206,584.785 722.706,621.618 719,662.5C 716.53,683.601 708.03,701.768 693.5,717C 691.725,718.439 689.725,719.439 687.5,720C 667.711,721.407 648.378,719.073 629.5,713C 626.681,712.426 624.348,711.093 622.5,709C 623.868,706.433 625.368,703.933 627,701.5C 635.934,707.524 645.767,709.69 656.5,708C 667.086,706.694 676.753,703.028 685.5,697C 691.112,692.824 692.945,687.324 691,680.5C 680.319,651.136 667.985,622.469 654,594.5C 652.667,591.833 650.667,589.833 648,588.5C 647.775,578.812 645.942,569.478 642.5,560.5C 656.474,558.374 670.14,555.374 683.5,551.5 Z"/></g>
<g><path style="opacity:1" fill="#653cb3" d="M 570.5,559.5 C 591.75,562.454 613.084,563.287 634.5,562C 638.148,569.742 639.815,577.909 639.5,586.5C 622.316,586.932 607.649,593.099 595.5,605C 582.524,606.618 571.19,603.118 561.5,594.5C 566.849,583.435 569.849,571.769 570.5,559.5 Z"/></g>
<g><path style="opacity:0.999" fill="#363b64" d="M 627.5,597.5 C 632.844,597.334 638.177,597.501 643.5,598C 658.898,626 671.898,655.166 682.5,685.5C 679.218,689.272 675.218,692.105 670.5,694C 659.397,698.957 648.063,699.624 636.5,696C 628.087,691.579 622.587,684.746 620,675.5C 611.355,654.589 606.022,632.922 604,610.5C 610.667,603.92 618.5,599.586 627.5,597.5 Z"/></g>
<g><path style="opacity:1" fill="#363b64" d="M 216.5,598.5 C 229.814,597.079 242.147,599.912 253.5,607C 270.962,621.46 288.128,636.293 305,651.5C 305.877,656.544 304.877,661.211 302,665.5C 297.563,673.106 291.397,678.772 283.5,682.5C 261.167,672 238.833,661.5 216.5,651C 207.473,646.628 198.973,641.461 191,635.5C 186.945,623.002 190.112,612.835 200.5,605C 205.744,602.315 211.077,600.148 216.5,598.5 Z"/></g>
<g><path style="opacity:1" fill="#653cb3" d="M 605.5,671.5 C 606.5,671.5 607.5,671.5 608.5,671.5C 611.286,680.572 615.286,689.072 620.5,697C 619.129,701.193 616.795,704.693 613.5,707.5C 596.787,701.983 581.787,693.65 568.5,682.5C 581.349,680.214 593.682,676.547 605.5,671.5 Z"/></g>
</svg>
