<?xml version="1.0" encoding="UTF-8"?>
<!DOCTYPE svg PUBLIC "-//W3C//DTD SVG 1.1//EN" "http://www.w3.org/Graphics/SVG/1.1/DTD/svg11.dtd">
<svg xmlns="http://www.w3.org/2000/svg" version="1.1" width="813px" height="813px" style="shape-rendering:geometricPrecision; text-rendering:geometricPrecision; image-rendering:optimizeQuality; fill-rule:evenodd; clip-rule:evenodd" xmlns:xlink="http://www.w3.org/1999/xlink">
<g><path style="opacity:0.965" fill="#040405" d="M 217.5,453.5 C 218.223,449.435 220.223,446.101 223.5,443.5C 244.979,450.068 263.146,444.735 278,427.5C 287.579,411.337 287.912,395.004 279,378.5C 277.667,377.167 276.333,375.833 275,374.5C 273.669,376.996 271.836,378.996 269.5,380.5C 285.681,357.469 302.348,334.803 319.5,312.5C 318.423,318.561 316.257,324.227 313,329.5C 307.756,337.414 301.756,344.748 295,351.5C 294.312,352.332 294.479,352.998 295.5,353.5C 362.046,384.763 430.712,390.263 501.5,370C 564.492,350.355 619.492,317.688 666.5,272C 639.183,260.672 611.183,251.339 582.5,244C 577.5,243.333 572.5,243.333 567.5,244C 527.591,274.302 487.924,273.969 448.5,243C 431.721,225.072 425.555,203.906 430,179.5C 439.104,141.062 462.604,116.229 500.5,105C 508.445,103.512 516.445,103.178 524.5,104C 534.821,105.415 544.821,107.749 554.5,111C 491.674,48.0849 420.341,36.4182 340.5,76C 319.118,88.8686 299.785,104.369 282.5,122.5C 289.222,121.248 296.222,119.748 303.5,118C 348.017,113.498 375.851,132.998 387,176.5C 394.205,204.534 387.372,228.367 366.5,248C 354.936,256.525 341.936,261.525 327.5,263C 322.582,263.195 317.749,263.695 313,264.5C 315.485,270.264 317.819,276.264 320,282.5C 321.075,286.77 321.575,291.103 321.5,295.5C 312.351,289.086 303.351,282.42 294.5,275.5C 291.344,270.053 287.344,265.219 282.5,261C 261.33,241.155 238.997,222.822 215.5,206C 210.818,203.413 205.818,201.913 200.5,201.5C 197.359,200.679 194.025,200.179 190.5,200C 184.98,195.97 179.647,191.803 174.5,187.5C 178.756,185.095 183.423,183.595 188.5,183C 199.026,182.097 209.36,182.763 219.5,185C 229.809,168.882 240.976,153.382 253,138.5C 251.927,100.126 260.594,64.1256 279,30.5C 280.5,27.6667 282.667,25.5 285.5,24C 297.669,22.1338 309.669,23.1338 321.5,27C 340.013,32.7576 357.346,40.9243 373.5,51.5C 407.773,42.6889 442.107,42.3556 476.5,50.5C 510.323,35.9486 545.323,25.1152 581.5,18C 588.459,16.6695 595.459,16.3361 602.5,17C 607.336,18.8186 610.169,22.3186 611,27.5C 620.269,70.8847 619.436,114.051 608.5,157C 637.661,192.291 662.327,230.624 682.5,272C 672.179,286.321 659.846,298.654 645.5,309C 621.548,325.591 596.548,340.591 570.5,354C 604.448,368.04 638.781,381.207 673.5,393.5C 678.13,392.041 682.796,390.707 687.5,389.5C 691.432,377.536 695.266,365.536 699,353.5C 700.255,351.406 702.088,350.406 704.5,350.5C 734.712,358.738 764.545,368.071 794,378.5C 794.618,383.326 793.951,387.992 792,392.5C 777.359,440.754 762.526,488.921 747.5,537C 792.818,549.126 813.985,578.626 811,625.5C 806.982,658.058 791.815,683.891 765.5,703C 720.858,731.367 673.192,737.7 622.5,722C 597.254,714.712 574.921,702.379 555.5,685C 537.765,683.72 520.432,680.386 503.5,675C 495.333,671.087 487.667,666.42 480.5,661C 471.804,651.969 462.804,643.303 453.5,635C 426.375,617.614 397.375,613.947 366.5,624C 347.086,630.418 330.586,641.251 317,656.5C 313.469,669.705 306.303,680.538 295.5,689C 289.462,692.577 283.128,693.244 276.5,691C 248.891,678.195 221.557,664.862 194.5,651C 178.664,640.816 174.497,626.983 182,609.5C 189.791,598.012 200.625,591.179 214.5,589C 220.833,588.333 227.167,588.333 233.5,589C 241.778,591.148 249.778,593.981 257.5,597.5C 259.498,576.671 268.498,559.504 284.5,546C 300.71,531.634 319.543,524.467 341,524.5C 342.601,512.461 344.434,500.461 346.5,488.5C 346.167,487.833 345.833,487.167 345.5,486.5C 318.184,498.988 292.184,496.821 267.5,480C 260.419,473.751 255.086,466.251 251.5,457.5C 239.988,458.253 228.654,456.92 217.5,453.5 Z M 290.5,357.5 C 295.444,360.645 300.444,363.812 305.5,367C 314.315,370.576 322.981,374.409 331.5,378.5C 324.171,392.99 312.504,401.324 296.5,403.5C 296.329,389.653 291.996,377.319 283.5,366.5C 286.084,363.651 288.417,360.651 290.5,357.5 Z M 727.5,387.5 C 738.749,387.562 742.916,392.896 740,403.5C 738.019,405.657 735.686,407.324 733,408.5C 728.92,403.914 724.42,399.914 719.5,396.5C 721.041,392.361 723.708,389.361 727.5,387.5 Z M 538.5,443.5 C 572.58,452.187 606.58,461.187 640.5,470.5C 644.546,478.382 650.213,484.882 657.5,490C 654.141,499.744 650.974,509.577 648,519.5C 646.723,523.097 646.39,526.764 647,530.5C 657.776,534.567 668.61,538.4 679.5,542C 644.356,552.568 608.69,554.901 572.5,549C 562.45,546.641 553.117,542.641 544.5,537C 542.951,535.786 541.785,534.286 541,532.5C 539.884,502.84 539.05,473.174 538.5,443.5 Z M 701.5,498.5 C 707.832,498.161 711.499,501.161 712.5,507.5C 711.07,514.307 706.904,518.307 700,519.5C 688.753,516.014 686.586,509.514 693.5,500C 696.365,499.817 699.031,499.317 701.5,498.5 Z"/></g>
<g><path style="opacity:1" fill="#663cb4" d="M 591.5,26.5 C 594.448,26.2229 597.281,26.5562 600,27.5C 610.122,66.9014 609.956,106.235 599.5,145.5C 582.716,125.881 564.716,107.381 545.5,90C 528.842,75.9947 510.508,64.4947 490.5,55.5C 523.344,42.5432 557.01,32.8766 591.5,26.5 Z"/></g>
<g><path style="opacity:1" fill="#653cb4" d="M 290.5,32.5 C 315.806,34.4354 339.139,42.2687 360.5,56C 323.271,72.535 291.104,96.035 264,126.5C 264.442,92.723 273.275,61.3896 290.5,32.5 Z"/></g>
<g><path style="opacity:1" fill="#9c6ef1" d="M 319.5,312.5 C 321.635,308.255 324.302,304.255 327.5,300.5C 325.481,298.81 323.481,297.144 321.5,295.5C 321.575,291.103 321.075,286.77 320,282.5C 317.819,276.264 315.485,270.264 313,264.5C 317.749,263.695 322.582,263.195 327.5,263C 341.936,261.525 354.936,256.525 366.5,248C 387.372,228.367 394.205,204.534 387,176.5C 375.851,132.998 348.017,113.498 303.5,118C 296.222,119.748 289.222,121.248 282.5,122.5C 299.785,104.369 319.118,88.8686 340.5,76C 420.341,36.4182 491.674,48.0849 554.5,111C 544.821,107.749 534.821,105.415 524.5,104C 516.445,103.178 508.445,103.512 500.5,105C 462.604,116.229 439.104,141.062 430,179.5C 425.555,203.906 431.721,225.072 448.5,243C 487.924,273.969 527.591,274.302 567.5,244C 572.5,243.333 577.5,243.333 582.5,244C 611.183,251.339 639.183,260.672 666.5,272C 619.492,317.688 564.492,350.355 501.5,370C 430.712,390.263 362.046,384.763 295.5,353.5C 294.479,352.998 294.312,352.332 295,351.5C 301.756,344.748 307.756,337.414 313,329.5C 316.257,324.227 318.423,318.561 319.5,312.5 Z"/></g>
<g><path style="opacity:0.999" fill="#070608" d="M 470.5,74.5 C 478.741,73.002 485.907,75.002 492,80.5C 495.583,87.4038 495.25,94.0705 491,100.5C 482.755,106.374 474.255,111.874 465.5,117C 456.741,125.096 447.407,132.429 437.5,139C 429.209,142.771 424.042,140.271 422,131.5C 420.683,119.117 424.016,108.117 432,98.5C 442.47,86.5246 455.303,78.5246 470.5,74.5 Z"/></g>
<g><path style="opacity:0.998" fill="#f9f9f9" d="M 473.5,83.5 C 477.544,82.9579 481.211,83.7912 484.5,86C 486.988,88.627 487.155,91.4603 485,94.5C 466.94,102.882 451.44,114.715 438.5,130C 433.598,134.032 430.265,133.032 428.5,127C 435.244,103.753 450.244,89.2527 473.5,83.5 Z"/></g>
<g><path style="opacity:0.999" fill="#09080b" d="M 342.5,92.5 C 368.411,90.871 385.911,102.204 395,126.5C 396.245,132.706 395.412,138.539 392.5,144C 388.833,146 385.167,146 381.5,144C 374.484,136.319 366.818,129.319 358.5,123C 351.905,119.468 344.905,117.135 337.5,116C 328.984,112.448 326.818,106.615 331,98.5C 334.575,95.7976 338.408,93.7976 342.5,92.5 Z"/></g>
<g><path style="opacity:0.998" fill="#f7f7f7" d="M 344.5,99.5 C 364.696,99.0146 378.863,108.015 387,126.5C 387.499,130.152 387.665,133.818 387.5,137.5C 386.448,137.649 385.448,137.483 384.5,137C 378.377,129.054 371.377,122.054 363.5,116C 355.877,112.014 347.877,109.014 339.5,107C 338.833,106.333 338.167,105.667 337.5,105C 339.469,102.511 341.802,100.678 344.5,99.5 Z"/></g>
<g><path style="opacity:1" fill="#363b64" d="M 502.5,113.5 C 539.5,109.59 569.333,122.257 592,151.5C 607,171.833 622,192.167 637,212.5C 646.928,228.685 656.095,245.352 664.5,262.5C 664,262.833 663.5,263.167 663,263.5C 632.598,250.421 601.098,241.088 568.5,235.5C 564.316,236.154 560.982,238.321 558.5,242C 525.425,263.93 492.425,263.93 459.5,242C 436.842,222.871 430.676,199.371 441,171.5C 450.493,149.676 465.327,132.51 485.5,120C 491.02,117.11 496.686,114.943 502.5,113.5 Z"/></g>
<g><path style="opacity:1" fill="#363b64" d="M 312.5,125.5 C 342.879,124.764 363.712,138.431 375,166.5C 383.521,185.887 383.521,205.22 375,224.5C 366.691,239.924 353.857,249.424 336.5,253C 326.926,255.119 317.259,255.786 307.5,255C 305.754,254.529 304.087,253.862 302.5,253C 277.994,231.991 253.66,210.824 229.5,189.5C 239.151,173.68 250.151,158.847 262.5,145C 277.949,135.024 294.616,128.524 312.5,125.5 Z"/></g>
<g><path style="opacity:0.994" fill="#1b1f3c" d="M 174.5,187.5 C 179.647,191.803 184.98,195.97 190.5,200C 194.025,200.179 197.359,200.679 200.5,201.5C 198.143,201.337 195.81,201.503 193.5,202C 208.784,212.949 223.784,224.282 238.5,236C 243.597,239.433 248.931,242.433 254.5,245C 256.833,248.667 259.833,251.667 263.5,254C 273.543,261.679 283.876,268.846 294.5,275.5C 303.351,282.42 312.351,289.086 321.5,295.5C 323.481,297.144 325.481,298.81 327.5,300.5C 324.302,304.255 321.635,308.255 319.5,312.5C 302.348,334.803 285.681,357.469 269.5,380.5C 253.369,400.957 238.036,421.957 223.5,443.5C 220.223,446.101 218.223,449.435 217.5,453.5C 201.363,474.482 185.363,495.649 169.5,517C 168.167,517.667 166.833,517.667 165.5,517C 161.268,513.257 156.935,509.757 152.5,506.5C 145.841,500.177 138.507,494.844 130.5,490.5C 114.268,477.448 96.9345,464.948 78.5,453C 76.5,451 74.5,449 72.5,447C 58.8871,437.106 45.5537,427.606 32.5,418.5C 24.174,411.096 15.5073,404.763 6.5,399.5C 3.99058,398.079 1.65725,396.412 -0.5,394.5C -0.5,360.167 -0.5,325.833 -0.5,291.5C 1.26321,288.98 3.26321,286.647 5.5,284.5C 3.5812,294.375 3.0812,304.375 4,314.5C 4.842,317.689 6.17534,320.689 8,323.5C 8.16135,329.143 10.328,333.81 14.5,337.5C 13.2524,339.649 11.7524,341.649 10,343.5C 9.31126,347.651 7.64459,351.317 5,354.5C 4.05611,357.347 4.55611,359.847 6.5,362C 61.2265,401.357 115.56,441.19 169.5,481.5C 172.013,483.506 174.846,484.84 178,485.5C 178.833,485.333 179.667,485.167 180.5,485C 209.071,445.694 237.905,406.194 267,366.5C 274.124,360.444 279.457,353.111 283,344.5C 289.049,337.452 294.716,330.119 300,322.5C 300.798,320.741 300.631,319.074 299.5,317.5C 243.36,276.589 187.36,235.423 131.5,194C 128.97,192.578 126.303,192.245 123.5,193C 122.072,195.185 120.405,197.185 118.5,199C 114.016,200.832 111.016,203.999 109.5,208.5C 109.631,207.624 109.298,206.957 108.5,206.5C 98.2407,204.117 87.9074,203.951 77.5,206C 69.8775,208.7 62.5442,211.867 55.5,215.5C 72.8354,191.991 90.0021,168.325 107,144.5C 108.117,142.876 109.617,141.876 111.5,141.5C 132.705,156.597 153.705,171.931 174.5,187.5 Z"/></g>
<g><path style="opacity:0.997" fill="#030303" d="M 503.5,169.5 C 514.963,168.815 522.796,173.815 527,184.5C 529.158,201.076 521.991,209.243 505.5,209C 494.099,204.377 489.266,195.877 491,183.5C 493.636,177.369 497.803,172.703 503.5,169.5 Z"/></g>
<g><path style="opacity:0.998" fill="#030304" d="M 318.5,175.5 C 329.331,173.84 336.498,178.173 340,188.5C 341.879,205.623 334.379,212.789 317.5,210C 305.816,203.494 303.316,194.327 310,182.5C 312.441,179.546 315.275,177.213 318.5,175.5 Z"/></g>
<g><path style="opacity:0.999" fill="#633baf" d="M 200.5,201.5 C 205.818,201.913 210.818,203.413 215.5,206C 238.997,222.822 261.33,241.155 282.5,261C 287.344,265.219 291.344,270.053 294.5,275.5C 283.876,268.846 273.543,261.679 263.5,254C 259.833,251.667 256.833,248.667 254.5,245C 248.931,242.433 243.597,239.433 238.5,236C 223.784,224.282 208.784,212.949 193.5,202C 195.81,201.503 198.143,201.337 200.5,201.5 Z"/></g>
<g><path style="opacity:0.952" fill="#262629" d="M 109.5,208.5 C 106.844,211.794 104.178,215.127 101.5,218.5C 94.1591,218.334 86.8258,218.5 79.5,219C 74.1768,221.328 68.8434,223.661 63.5,226C 62.7433,227.512 61.7433,228.846 60.5,230C 49.5548,237.37 40.0548,246.203 32,256.5C 26.3116,267.22 21.9782,278.553 19,290.5C 17.6544,302.801 18.8211,314.801 22.5,326.5C 19.8333,330.167 17.1667,333.833 14.5,337.5C 10.328,333.81 8.16135,329.143 8,323.5C 6.17534,320.689 4.842,317.689 4,314.5C 3.0812,304.375 3.5812,294.375 5.5,284.5C 20.9453,260.607 37.612,237.607 55.5,215.5C 62.5442,211.867 69.8775,208.7 77.5,206C 87.9074,203.951 98.2407,204.117 108.5,206.5C 109.298,206.957 109.631,207.624 109.5,208.5 Z"/></g>
<g><path style="opacity:1" fill="#1a1e3b" d="M 101.5,218.5 C 100.969,220.544 99.8022,222.211 98,223.5C 97.6667,225.5 97.3333,227.5 97,229.5C 74.5114,259.145 52.5114,289.145 31,319.5C 29.5589,320.26 28.0589,320.926 26.5,321.5C 25.3875,323.419 24.0542,325.086 22.5,326.5C 18.8211,314.801 17.6544,302.801 19,290.5C 21.9782,278.553 26.3116,267.22 32,256.5C 40.0548,246.203 49.5548,237.37 60.5,230C 61.7433,228.846 62.7433,227.512 63.5,226C 68.8434,223.661 74.1768,221.328 79.5,219C 86.8258,218.5 94.1591,218.334 101.5,218.5 Z"/></g>
<g><path style="opacity:0.998" fill="#050406" d="M 404.5,231.5 C 433.089,227.537 437.089,235.37 416.5,255C 413.789,256.805 411.122,256.805 408.5,255C 403.525,251.03 399.691,246.197 397,240.5C 396.405,234.928 398.905,231.928 404.5,231.5 Z"/></g>
<g><path style="opacity:0.999" fill="#070406" d="M 365.5,264.5 C 370.267,265.088 373.434,267.755 375,272.5C 382.325,279.017 390.492,280.184 399.5,276C 403.046,272.118 406.879,268.618 411,265.5C 415.404,267.898 419.238,271.065 422.5,275C 437.818,284.334 450.485,281.667 460.5,267C 463.857,265.859 465.857,267.025 466.5,270.5C 465.557,275.053 463.557,279.053 460.5,282.5C 455.03,286.26 449.53,289.927 444,293.5C 439.038,305.612 431.538,315.779 421.5,324C 414.049,327.801 407.049,327.135 400.5,322C 388.883,312.596 380.883,300.762 376.5,286.5C 368.902,283.237 364.236,277.57 362.5,269.5C 363.092,267.577 364.092,265.911 365.5,264.5 Z"/></g>
<g><path style="opacity:0.999" fill="#bb0d00" d="M 410.5,279.5 C 414.954,282.229 419.62,284.729 424.5,287C 427.432,288.145 430.432,288.978 433.5,289.5C 430.862,300.608 424.862,309.441 415.5,316C 413.5,316.667 411.5,316.667 409.5,316C 399.678,309.351 392.678,300.517 388.5,289.5C 393.289,288.818 397.955,287.652 402.5,286C 405.787,284.533 408.454,282.366 410.5,279.5 Z"/></g>
<g><path style="opacity:1" fill="#9c6ef2" d="M 636.5,439.5 C 635.833,445.5 635.167,451.5 634.5,457.5C 602.81,449.494 571.143,441.327 539.5,433C 538.167,430 536.833,427 535.5,424C 532.783,422.967 530.949,423.8 530,426.5C 528.913,435.117 528.413,443.784 528.5,452.5C 529.2,488.17 530.033,523.837 531,559.5C 537.401,594.024 558.068,612.691 593,615.5C 595.758,630.797 599.592,645.797 604.5,660.5C 603.91,661.799 602.91,662.632 601.5,663C 570.852,674.266 540.185,674.266 509.5,663C 495.181,656.355 482.848,647.022 472.5,635C 438.974,608.109 401.641,601.443 360.5,615C 342.12,621.726 326.12,632.059 312.5,646C 311.833,646.667 311.167,646.667 310.5,646C 297.048,634.182 283.882,622.016 271,609.5C 267.21,601.108 266.543,592.442 269,583.5C 279.6,560.234 297.1,544.734 321.5,537C 328.619,535.194 335.785,535.028 343,536.5C 345.034,536.646 346.701,535.98 348,534.5C 353.986,504.256 359.652,473.922 365,443.5C 365.779,438.5 366.112,433.5 366,428.5C 362.527,424.283 359.527,424.616 357,429.5C 355.504,443.642 353.17,457.642 350,471.5C 324.922,488.551 299.755,488.717 274.5,472C 268.775,466.781 264.442,460.614 261.5,453.5C 278.129,445.038 289.129,431.871 294.5,414C 316.364,412.137 332.364,401.471 342.5,382C 361.541,386.388 380.875,389.388 400.5,391C 431.579,392.225 462.245,389.225 492.5,382C 513.544,376.263 534.21,369.43 554.5,361.5C 588.764,373.31 622.764,385.81 656.5,399C 656.957,399.414 657.291,399.914 657.5,400.5C 644.465,410.237 637.465,423.237 636.5,439.5 Z"/></g>
<g><path style="opacity:0.999" fill="#bb0d00" d="M 706.5,362.5 C 732.388,369.389 758.054,377.056 783.5,385.5C 766.555,438.999 750.222,492.666 734.5,546.5C 708.532,539.566 682.866,531.732 657.5,523C 660.543,513.37 663.876,503.87 667.5,494.5C 672.88,496.506 678.213,498.506 683.5,500.5C 679.559,514.979 684.893,523.312 699.5,525.5C 714.401,524.013 720.234,516.013 717,501.5C 715.961,499.254 714.794,497.087 713.5,495C 736.626,482.927 747.459,463.76 746,437.5C 744.495,429.984 741.995,422.818 738.5,416C 743.15,412.355 746.65,407.855 749,402.5C 750.408,388.965 744.408,381.298 731,379.5C 727.077,379.474 723.577,380.641 720.5,383C 717.357,386.82 714.357,390.654 711.5,394.5C 707.264,393.024 702.93,392.024 698.5,391.5C 701.167,381.833 703.833,372.167 706.5,362.5 Z M 701.5,498.5 C 699.031,499.317 696.365,499.817 693.5,500C 686.586,509.514 688.753,516.014 700,519.5C 706.904,518.307 711.07,514.307 712.5,507.5C 711.499,501.161 707.832,498.161 701.5,498.5 Z"/></g>
<g><path style="opacity:0.999" fill="#363b64" d="M 223.5,443.5 C 238.036,421.957 253.369,400.957 269.5,380.5C 271.836,378.996 273.669,376.996 275,374.5C 276.333,375.833 277.667,377.167 279,378.5C 287.912,395.004 287.579,411.337 278,427.5C 263.146,444.735 244.979,450.068 223.5,443.5 Z"/></g>
<g><path style="opacity:1" fill="#3c2e6f" d="M 14.5,337.5 C 17.1667,333.833 19.8333,330.167 22.5,326.5C 24.0542,325.086 25.3875,323.419 26.5,321.5C 28.0589,320.926 29.5589,320.26 31,319.5C 52.5114,289.145 74.5114,259.145 97,229.5C 97.3333,227.5 97.6667,225.5 98,223.5C 99.8022,222.211 100.969,220.544 101.5,218.5C 104.178,215.127 106.844,211.794 109.5,208.5C 111.016,203.999 114.016,200.832 118.5,199C 120.405,197.185 122.072,195.185 123.5,193C 126.303,192.245 128.97,192.578 131.5,194C 187.36,235.423 243.36,276.589 299.5,317.5C 300.631,319.074 300.798,320.741 300,322.5C 294.716,330.119 289.049,337.452 283,344.5C 279.457,353.111 274.124,360.444 267,366.5C 237.905,406.194 209.071,445.694 180.5,485C 179.667,485.167 178.833,485.333 178,485.5C 174.846,484.84 172.013,483.506 169.5,481.5C 115.56,441.19 61.2265,401.357 6.5,362C 4.55611,359.847 4.05611,357.347 5,354.5C 7.64459,351.317 9.31126,347.651 10,343.5C 11.7524,341.649 13.2524,339.649 14.5,337.5 Z"/></g>
<g><path style="opacity:1" fill="#5b498d" d="M 115.5,208.5 C 116.909,210.417 118.576,212.25 120.5,214C 162.833,244.833 205.167,275.667 247.5,306.5C 247.709,312.107 247.876,317.773 248,323.5C 250.08,325.993 251.914,328.659 253.5,331.5C 248.31,344.737 241.976,357.404 234.5,369.5C 233.833,369.5 233.167,369.5 232.5,369.5C 239.584,357.273 245.918,344.606 251.5,331.5C 250.167,329.833 248.833,328.167 247.5,326.5C 246.614,327.325 246.281,328.325 246.5,329.5C 245.167,329.5 243.833,329.5 242.5,329.5C 241.02,324.252 240.52,318.919 241,313.5C 242.699,312.594 244.533,312.261 246.5,312.5C 246.822,310.278 246.155,308.444 244.5,307C 202.909,277.085 161.576,246.751 120.5,216C 117.89,214.519 115.223,213.352 112.5,212.5C 113.122,210.878 114.122,209.545 115.5,208.5 Z"/></g>
<g><path style="opacity:1" fill="#7764a8" d="M 112.5,212.5 C 115.223,213.352 117.89,214.519 120.5,216C 161.576,246.751 202.909,277.085 244.5,307C 246.155,308.444 246.822,310.278 246.5,312.5C 244.533,312.261 242.699,312.594 241,313.5C 240.52,318.919 241.02,324.252 242.5,329.5C 243.833,329.5 245.167,329.5 246.5,329.5C 246.281,328.325 246.614,327.325 247.5,326.5C 248.833,328.167 250.167,329.833 251.5,331.5C 245.918,344.606 239.584,357.273 232.5,369.5C 231.833,371.5 231.167,373.5 230.5,375.5C 229.833,376.833 228.833,377.833 227.5,378.5C 225.922,379.066 224.588,380.066 223.5,381.5C 216.488,390.872 209.488,400.205 202.5,409.5C 194.527,417.473 186.527,425.473 178.5,433.5C 174.206,436.595 172.873,435.595 174.5,430.5C 171.167,429.167 167.833,429.167 164.5,430.5C 165.894,431.687 165.727,432.354 164,432.5C 161.744,430.915 159.244,430.248 156.5,430.5C 157.435,435.672 155.435,437.839 150.5,437C 127.114,419.28 103.447,401.947 79.5,385C 77.3234,383.503 75.99,381.503 75.5,379C 78.8756,367.919 75.209,360.419 64.5,356.5C 63.7696,354.659 63.1029,352.825 62.5,351C 62.1667,350.833 61.8333,350.667 61.5,350.5C 60.7492,351.376 60.2492,352.376 60,353.5C 59.7508,352.376 59.2508,351.376 58.5,350.5C 54.61,351.984 50.61,353.15 46.5,354C 45.9103,355.509 45.2436,357.009 44.5,358.5C 35.7976,352.44 27.4642,346.106 19.5,339.5C 50.2718,296.938 81.2718,254.604 112.5,212.5 Z"/></g>
<g><path style="opacity:1" fill="#282829" d="M 140.5,282.5 C 171.413,279.295 193.246,291.629 206,319.5C 210.616,338.251 208.282,355.918 199,372.5C 179.453,393.403 155.953,399.57 128.5,391C 111.337,382.166 100.504,368.332 96,349.5C 93.4863,329.228 98.9863,311.562 112.5,296.5C 116.663,293.18 120.997,290.013 125.5,287C 130.614,285.424 135.614,283.924 140.5,282.5 Z"/></g>
<g><path style="opacity:1" fill="#99999b" d="M 153.5,345.5 C 152.5,346.5 151.5,347.5 150.5,348.5C 147.103,347.808 143.77,347.808 140.5,348.5C 141.912,349.806 143.579,350.64 145.5,351C 145.167,351.333 144.833,351.667 144.5,352C 145.823,352.816 146.489,353.983 146.5,355.5C 145.059,357.37 143.393,359.037 141.5,360.5C 138.443,358.882 135.61,356.882 133,354.5C 132.349,352.765 132.515,351.098 133.5,349.5C 135.319,348.68 136.986,347.68 138.5,346.5C 139.927,344.533 141.761,342.866 144,341.5C 146.157,342.385 146.99,344.052 146.5,346.5C 147.552,346.649 148.552,346.483 149.5,346C 148.805,342.933 147.138,340.6 144.5,339C 144.833,338.5 145.167,338 145.5,337.5C 149.238,339.238 151.905,341.905 153.5,345.5 Z"/></g>
<g><path style="opacity:1" fill="#6d6e70" d="M 161.5,334.5 C 160.063,339.313 157.063,340.647 152.5,338.5C 152.414,339.496 152.748,340.329 153.5,341C 154.738,340.923 155.738,341.089 156.5,341.5C 155.479,342.901 154.479,344.235 153.5,345.5C 151.905,341.905 149.238,339.238 145.5,337.5C 145.167,338 144.833,338.5 144.5,339C 147.138,340.6 148.805,342.933 149.5,346C 148.552,346.483 147.552,346.649 146.5,346.5C 146.99,344.052 146.157,342.385 144,341.5C 141.761,342.866 139.927,344.533 138.5,346.5C 139.014,344.132 140.18,342.132 142,340.5C 142.49,339.207 142.657,337.873 142.5,336.5C 143.833,336.5 145.167,336.5 146.5,336.5C 146.564,332.781 148.231,330.114 151.5,328.5C 152.031,330.544 153.198,332.211 155,333.5C 154.805,331.874 154.805,330.207 155,328.5C 155.561,329.022 156.228,329.355 157,329.5C 159.238,326.85 161.071,327.183 162.5,330.5C 161.399,332.394 160.066,333.061 158.5,332.5C 159.005,333.919 160.005,334.585 161.5,334.5 Z"/></g>
<g><path style="opacity:1" fill="#babac0" d="M 152.5,338.5 C 151.061,339.509 149.728,339.176 148.5,337.5C 146.735,333.986 147.735,332.486 151.5,333C 152.5,333.833 153.5,334.667 154.5,335.5C 153.807,336.518 153.141,337.518 152.5,338.5 Z"/></g>
<g><path style="opacity:1" fill="#949496" d="M 161.5,334.5 C 160.005,334.585 159.005,333.919 158.5,332.5C 160.066,333.061 161.399,332.394 162.5,330.5C 161.071,327.183 159.238,326.85 157,329.5C 156.228,329.355 155.561,329.022 155,328.5C 154.805,330.207 154.805,331.874 155,333.5C 153.198,332.211 152.031,330.544 151.5,328.5C 151.694,326.088 153.027,325.088 155.5,325.5C 155.187,322.753 155.52,320.086 156.5,317.5C 157.167,317.833 157.833,318.167 158.5,318.5C 163.593,312.65 167.093,313.65 169,321.5C 169.893,320.289 170.726,320.289 171.5,321.5C 168.023,325.854 164.689,330.188 161.5,334.5 Z"/></g>
<g><path style="opacity:1" fill="#6955a1" d="M 101.5,250.5 C 101.45,252.59 102.45,253.923 104.5,254.5C 108.431,249.615 112.097,244.615 115.5,239.5C 116.265,238.388 117.265,237.721 118.5,237.5C 122.113,235.176 122.447,232.343 119.5,229C 118.062,228.781 116.729,228.281 115.5,227.5C 122.046,226.061 124.546,228.728 123,235.5C 115.972,245.028 109.139,254.695 102.5,264.5C 94.7142,265.865 91.8809,262.532 94,254.5C 98.0723,250.017 101.906,245.351 105.5,240.5C 105.833,241 106.167,241.5 106.5,242C 105.294,245.135 103.627,247.969 101.5,250.5 Z"/></g>
<g><path style="opacity:1" fill="#9e96ba" d="M 118.5,237.5 C 117.265,237.721 116.265,238.388 115.5,239.5C 112.097,244.615 108.431,249.615 104.5,254.5C 102.45,253.923 101.45,252.59 101.5,250.5C 103.017,250.489 104.184,249.823 105,248.5C 108.559,243.292 112.059,238.125 115.5,233C 116.5,232.5 117.5,232 118.5,231.5C 119.519,233.46 119.519,235.46 118.5,237.5 Z"/></g>
<g><path style="opacity:1" fill="#7663a7" d="M 16.5,343.5 C 17.8734,343.343 19.2068,343.51 20.5,344C 28.5,350 36.5,356 44.5,362C 46.1667,362.667 47.8333,362.667 49.5,362C 55.7551,356.344 62.4217,356.01 69.5,361C 74.9059,366.565 75.9059,372.898 72.5,380C 72.9903,381.982 73.9903,383.649 75.5,385C 100.167,403 124.833,421 149.5,439C 151.5,439.667 153.5,439.667 155.5,439C 158.09,436.288 161.257,434.788 165,434.5C 168.211,435.679 171.545,436.679 175,437.5C 176.226,437.355 177.393,437.022 178.5,436.5C 187.167,427.5 195.833,418.5 204.5,409.5C 207.716,408.935 210.049,407.268 211.5,404.5C 212.29,403.599 213.29,402.932 214.5,402.5C 219.955,399.709 223.622,395.376 225.5,389.5C 227.053,386.76 228.886,384.093 231,381.5C 231.49,380.207 231.657,378.873 231.5,377.5C 233.585,375.316 234.585,372.649 234.5,369.5C 241.976,357.404 248.31,344.737 253.5,331.5C 251.914,328.659 250.08,325.993 248,323.5C 247.876,317.773 247.709,312.107 247.5,306.5C 205.167,275.667 162.833,244.833 120.5,214C 118.576,212.25 116.909,210.417 115.5,208.5C 117.99,204.862 120.49,201.195 123,197.5C 124.113,195.671 125.613,194.837 127.5,195C 183.866,237.084 240.366,278.584 297,319.5C 297.749,320.635 297.583,321.635 296.5,322.5C 260.91,369.963 225.743,417.963 191,466.5C 186.509,471.957 182.009,477.29 177.5,482.5C 176.062,482.281 174.729,481.781 173.5,481C 169.738,475.622 164.738,471.955 158.5,470C 144.875,460.367 131.875,450.033 119.5,439C 117.392,438.64 115.392,437.973 113.5,437C 109.62,431.784 104.62,428.118 98.5,426C 69.6859,404.153 40.6859,382.82 11.5,362C 9.81156,360.312 8.14489,358.645 6.5,357C 9.48317,352.182 12.8165,347.682 16.5,343.5 Z"/></g>
<g><path style="opacity:1" fill="#8b2d58" d="M 232.5,369.5 C 233.167,369.5 233.833,369.5 234.5,369.5C 234.585,372.649 233.585,375.316 231.5,377.5C 231.672,376.508 231.338,375.842 230.5,375.5C 231.167,373.5 231.833,371.5 232.5,369.5 Z"/></g>
<g><path style="opacity:1" fill="#815ec6" d="M 132.5,369.5 C 132.461,370.583 132.127,371.583 131.5,372.5C 132.95,373.85 133.617,375.516 133.5,377.5C 131.712,377.785 130.045,377.452 128.5,376.5C 125.792,373.791 122.792,371.458 119.5,369.5C 119.697,361.503 123.531,358.837 131,361.5C 132.252,364.014 132.752,366.68 132.5,369.5 Z"/></g>
<g><path style="opacity:1" fill="#a7a8b6" d="M 55.5,360.5 C 62.4242,359.956 67.5909,362.623 71,368.5C 71.9179,379.211 67.0845,384.378 56.5,384C 48.3512,380.535 45.8512,374.702 49,366.5C 51.2418,364.413 53.4085,362.413 55.5,360.5 Z"/></g>
<g><path style="opacity:1" fill="#574481" d="M 132.5,369.5 C 132.752,366.68 132.252,364.014 131,361.5C 123.531,358.837 119.697,361.503 119.5,369.5C 118.549,368.081 118.216,366.415 118.5,364.5C 117.5,364.5 116.5,364.5 115.5,364.5C 116.304,358.03 119.97,354.697 126.5,354.5C 126.5,355.833 126.5,357.167 126.5,358.5C 132.958,359.749 134.958,363.416 132.5,369.5 Z"/></g>
<g><path style="opacity:1" fill="#332e5e" d="M 123.5,362.5 C 125.5,362.5 127.5,362.5 129.5,362.5C 129.662,364.527 129.495,366.527 129,368.5C 127.333,369.833 125.667,369.833 124,368.5C 123.505,366.527 123.338,364.527 123.5,362.5 Z"/></g>
<g><path style="opacity:1" fill="#646465" d="M 150.5,348.5 C 149.549,351.102 148.216,353.435 146.5,355.5C 146.489,353.983 145.823,352.816 144.5,352C 144.833,351.667 145.167,351.333 145.5,351C 143.579,350.64 141.912,349.806 140.5,348.5C 143.77,347.808 147.103,347.808 150.5,348.5 Z"/></g>
<g><path style="opacity:1" fill="#dc6025" d="M 230.5,375.5 C 231.338,375.842 231.672,376.508 231.5,377.5C 231.657,378.873 231.49,380.207 231,381.5C 228.886,384.093 227.053,386.76 225.5,389.5C 225.657,388.127 225.49,386.793 225,385.5C 222.386,389.09 219.552,392.424 216.5,395.5C 219.918,389.663 223.584,383.996 227.5,378.5C 228.833,377.833 229.833,376.833 230.5,375.5 Z"/></g>
<g><path style="opacity:1" fill="#5c498c" d="M 19.5,339.5 C 27.4642,346.106 35.7976,352.44 44.5,358.5C 45.2436,357.009 45.9103,355.509 46.5,354C 50.61,353.15 54.61,351.984 58.5,350.5C 59.2508,351.376 59.7508,352.376 60,353.5C 60.2492,352.376 60.7492,351.376 61.5,350.5C 61.8333,350.667 62.1667,350.833 62.5,351C 63.1029,352.825 63.7696,354.659 64.5,356.5C 75.209,360.419 78.8756,367.919 75.5,379C 75.99,381.503 77.3234,383.503 79.5,385C 103.447,401.947 127.114,419.28 150.5,437C 155.435,437.839 157.435,435.672 156.5,430.5C 159.244,430.248 161.744,430.915 164,432.5C 165.727,432.354 165.894,431.687 164.5,430.5C 167.833,429.167 171.167,429.167 174.5,430.5C 172.873,435.595 174.206,436.595 178.5,433.5C 186.527,425.473 194.527,417.473 202.5,409.5C 209.488,400.205 216.488,390.872 223.5,381.5C 224.588,380.066 225.922,379.066 227.5,378.5C 223.584,383.996 219.918,389.663 216.5,395.5C 214.031,398.144 211.698,400.977 209.5,404C 210.094,404.464 210.761,404.631 211.5,404.5C 210.049,407.268 207.716,408.935 204.5,409.5C 195.833,418.5 187.167,427.5 178.5,436.5C 177.393,437.022 176.226,437.355 175,437.5C 171.545,436.679 168.211,435.679 165,434.5C 161.257,434.788 158.09,436.288 155.5,439C 153.5,439.667 151.5,439.667 149.5,439C 124.833,421 100.167,403 75.5,385C 73.9903,383.649 72.9903,381.982 72.5,380C 75.9059,372.898 74.9059,366.565 69.5,361C 62.4217,356.01 55.7551,356.344 49.5,362C 47.8333,362.667 46.1667,362.667 44.5,362C 36.5,356 28.5,350 20.5,344C 19.2068,343.51 17.8734,343.343 16.5,343.5C 17.5116,342.128 18.5116,340.795 19.5,339.5 Z"/></g>
<g><path style="opacity:1" fill="#f89110" d="M 225.5,389.5 C 223.528,393.105 220.861,396.105 217.5,398.5C 216.761,398.631 216.094,398.464 215.5,398C 216.252,397.329 216.586,396.496 216.5,395.5C 219.552,392.424 222.386,389.09 225,385.5C 225.49,386.793 225.657,388.127 225.5,389.5 Z"/></g>
<g><path style="opacity:0.96" fill="#030304" d="M 32.5,418.5 C 36.9239,424.429 41.9239,429.929 47.5,435C 62.5398,448.375 77.8731,461.375 93.5,474C 100.667,479.42 108.333,484.087 116.5,488C 121,489.792 125.667,490.625 130.5,490.5C 138.507,494.844 145.841,500.177 152.5,506.5C 131.615,513.575 111.948,511.075 93.5,499C 69.0371,478.206 44.8704,457.039 21,435.5C 12.1536,425.13 7.3203,413.13 6.5,399.5C 15.5073,404.763 24.174,411.096 32.5,418.5 Z"/></g>
<g><path style="opacity:1" fill="#934565" d="M 225.5,389.5 C 223.622,395.376 219.955,399.709 214.5,402.5C 215.5,401.167 216.5,399.833 217.5,398.5C 220.861,396.105 223.528,393.105 225.5,389.5 Z"/></g>
<g><path style="opacity:0.999" fill="#070509" d="M 406.5,400.5 C 425.27,400.009 443.936,401.176 462.5,404C 468.74,405.908 472.573,410.075 474,416.5C 475.294,432.615 473.294,448.282 468,463.5C 464.846,467.661 460.679,470.161 455.5,471C 440.5,471.667 425.5,471.667 410.5,471C 404.051,470.722 397.718,469.722 391.5,468C 384.703,465.598 380.87,460.765 380,453.5C 379.333,443.167 379.333,432.833 380,422.5C 381.097,415.126 384.597,409.293 390.5,405C 395.783,402.85 401.116,401.35 406.5,400.5 Z"/></g>
<g><path style="opacity:1" fill="#363b64" d="M 687.5,400.5 C 711.374,400.014 727.208,411.014 735,433.5C 739.122,458.093 729.956,475.593 707.5,486C 681.795,494.219 662.295,486.719 649,463.5C 640.634,436.402 649.134,416.569 674.5,404C 678.86,402.417 683.194,401.25 687.5,400.5 Z"/></g>
<g><path style="opacity:1" fill="#cc402d" d="M 216.5,395.5 C 216.586,396.496 216.252,397.329 215.5,398C 216.094,398.464 216.761,398.631 217.5,398.5C 216.5,399.833 215.5,401.167 214.5,402.5C 213.29,402.932 212.29,403.599 211.5,404.5C 210.761,404.631 210.094,404.464 209.5,404C 211.698,400.977 214.031,398.144 216.5,395.5 Z"/></g>
<g><path style="opacity:1" fill="#663cb2" d="M 402.5,408.5 C 414.838,408.333 427.171,408.5 439.5,409C 447.61,409.463 455.61,410.463 463.5,412C 464.333,412.833 465.167,413.667 466,414.5C 467.047,426.942 466.381,439.275 464,451.5C 463.058,454.993 461.725,458.326 460,461.5C 436.719,465.96 413.553,465.294 390.5,459.5C 384.68,443.933 385.18,428.6 392,413.5C 395.147,410.841 398.647,409.174 402.5,408.5 Z"/></g>
<g><path style="opacity:0.994" fill="#bc0e03" d="M 434.5,413.5 C 441.289,412.818 447.122,414.818 452,419.5C 455.498,425.349 454.998,430.849 450.5,436C 445.593,438.691 440.426,440.857 435,442.5C 430.107,440.263 429.274,436.93 432.5,432.5C 435.447,431.679 438.447,431.179 441.5,431C 446.325,428.865 446.659,426.199 442.5,423C 439.118,422.824 435.785,422.324 432.5,421.5C 430.778,418.082 431.444,415.416 434.5,413.5 Z"/></g>
<g><path style="opacity:0.994" fill="#bc0f04" d="M 404.5,415.5 C 409.07,415.238 411.07,417.404 410.5,422C 410.042,427 408.875,431.833 407,436.5C 405.959,438.585 404.459,440.252 402.5,441.5C 401.808,440.975 401.308,440.308 401,439.5C 400.333,434.833 400.333,430.167 401,425.5C 401.264,421.736 402.431,418.403 404.5,415.5 Z"/></g>
<g><path style="opacity:0.999" fill="#643bb1" d="M 130.5,490.5 C 125.667,490.625 121,489.792 116.5,488C 108.333,484.087 100.667,479.42 93.5,474C 77.8731,461.375 62.5398,448.375 47.5,435C 41.9239,429.929 36.9239,424.429 32.5,418.5C 45.5537,427.606 58.8871,437.106 72.5,447C 74.5,449 76.5,451 78.5,453C 96.9345,464.948 114.268,477.448 130.5,490.5 Z"/></g>
<g><path style="opacity:0.873" fill="#30234a" d="M 636.5,439.5 C 636.83,445.868 636.496,452.202 635.5,458.5C 634.893,458.376 634.56,458.043 634.5,457.5C 635.167,451.5 635.833,445.5 636.5,439.5 Z"/></g>
<g><path style="opacity:0.99" fill="#ba1009" d="M 400.5,447.5 C 407.225,447.204 408.891,449.871 405.5,455.5C 401.61,456.817 399.276,455.317 398.5,451C 398.978,449.697 399.645,448.531 400.5,447.5 Z"/></g>
<g><path style="opacity:0.991" fill="#bb0f07" d="M 433.5,448.5 C 439.643,449.026 440.976,451.86 437.5,457C 432,458.167 429.833,456 431,450.5C 431.995,449.934 432.828,449.267 433.5,448.5 Z"/></g>
<g><path style="opacity:1" fill="#996ced" d="M 540.5,547.5 C 547.616,551.059 554.95,554.059 562.5,556.5C 562.45,567.918 560.283,578.918 556,589.5C 544.629,577.897 539.462,563.897 540.5,547.5 Z"/></g>
<g><path style="opacity:1" fill="#663cb5" d="M 701.5,548.5 C 713.062,551.186 724.562,554.186 736,557.5C 737.167,557.333 738.333,557.167 739.5,557C 741.484,554.866 742.818,552.366 743.5,549.5C 751.279,548.442 758.613,549.942 765.5,554C 801.002,577.724 810.502,609.557 794,649.5C 789.204,664.274 781.037,676.774 769.5,687C 752.094,700.619 732.594,710.119 711,715.5C 710.167,715.333 709.333,715.167 708.5,715C 721.409,696.611 728.576,676.111 730,653.5C 730.776,615.83 720.276,581.664 698.5,551C 699.571,550.148 700.571,549.315 701.5,548.5 Z"/></g>
<g><path style="opacity:1" fill="#9b6ef0" d="M 683.5,551.5 C 684.873,551.343 686.207,551.51 687.5,552C 712.206,584.785 722.706,621.618 719,662.5C 716.53,683.601 708.03,701.768 693.5,717C 691.725,718.439 689.725,719.439 687.5,720C 667.711,721.407 648.378,719.073 629.5,713C 626.681,712.426 624.348,711.093 622.5,709C 623.868,706.433 625.368,703.933 627,701.5C 635.934,707.524 645.767,709.69 656.5,708C 667.086,706.694 676.753,703.028 685.5,697C 691.112,692.824 692.945,687.324 691,680.5C 680.319,651.136 667.985,622.469 654,594.5C 652.667,591.833 650.667,589.833 648,588.5C 647.775,578.812 645.942,569.478 642.5,560.5C 656.474,558.374 670.14,555.374 683.5,551.5 Z"/></g>
<g><path style="opacity:1" fill="#653cb3" d="M 570.5,559.5 C 591.75,562.454 613.084,563.287 634.5,562C 638.148,569.742 639.815,577.909 639.5,586.5C 622.316,586.932 607.649,593.099 595.5,605C 582.524,606.618 571.19,603.118 561.5,594.5C 566.849,583.435 569.849,571.769 570.5,559.5 Z"/></g>
<g><path style="opacity:0.999" fill="#363b64" d="M 627.5,597.5 C 632.844,597.334 638.177,597.501 643.5,598C 658.898,626 671.898,655.166 682.5,685.5C 679.218,689.272 675.218,692.105 670.5,694C 659.397,698.957 648.063,699.624 636.5,696C 628.087,691.579 622.587,684.746 620,675.5C 611.355,654.589 606.022,632.922 604,610.5C 610.667,603.92 618.5,599.586 627.5,597.5 Z"/></g>
<g><path style="opacity:1" fill="#363b64" d="M 216.5,598.5 C 229.814,597.079 242.147,599.912 253.5,607C 270.962,621.46 288.128,636.293 305,651.5C 305.877,656.544 304.877,661.211 302,665.5C 297.563,673.106 291.397,678.772 283.5,682.5C 261.167,672 238.833,661.5 216.5,651C 207.473,646.628 198.973,641.461 191,635.5C 186.945,623.002 190.112,612.835 200.5,605C 205.744,602.315 211.077,600.148 216.5,598.5 Z"/></g>
<g><path style="opacity:1" fill="#653cb3" d="M 605.5,671.5 C 606.5,671.5 607.5,671.5 608.5,671.5C 611.286,680.572 615.286,689.072 620.5,697C 619.129,701.193 616.795,704.693 613.5,707.5C 596.787,701.983 581.787,693.65 568.5,682.5C 581.349,680.214 593.682,676.547 605.5,671.5 Z"/></g>
</svg>
